# xmcd CD database file
#
# Track frame offsets:
#	150
#	11123
#	19343
#	33713
#	45771
#	56834
#	69997
#	87007
#	104180
#	118166
#	131717
#	141647
#	153737
#	169771
#	180391
#	191533
#	203375
#
# Disc length: 3023 seconds
#
# Revision: 0
# Processed by: cddbd v1.5.2PL0 Copyright (c) Steve Scherf et al.
# Submitted via: CDex 1.78
#
DISCID=f30bcd11
DTITLE=Songs from the pen of, Ginny Peters. - Thank You.
DYEAR=2015
DGENRE=Country
TTITLE0=Mike Whetsel - New Beginnings
TTITLE1=Jim Coyle - String Tickling
TTITLE2=Anne Wilson - Call Me Darling
TTITLE3=Reg McTaggart - Same Sun And Moon
TTITLE4=Glory Thorburn - Could It Be
TTITLE5=Jack Runyon - Somethings Have To Be Believed To Be Seen
TTITLE6=Manon - Dans Les Bras Du Passe`
TTITLE7=Kimberly Bibb Marrs - Beyond Vision
TTITLE8=Bonny Charles - Straight Talk
TTITLE9=Rex Franklin - Happy Anniversary
TTITLE10=Sharron Nichols - Thanks For Nothing
TTITLE11=John Donelly - My Heart Keeps Changing My Mind
TTITLE12=Josie K - Lady With Blues On Her Mind
TTITLE13=Dennis Marsh - If This Is Love
TTITLE14=Russ Rousselle - We Almost Touched
TTITLE15=David Austin - I've Got My Eye On Heaven
TTITLE16=Ginny Peters - I'm Saying Thank you
EXTD=YEAR: 2015
EXTT0=
EXTT1=
EXTT2=
EXTT3=
EXTT4=
EXTT5=
EXTT6=
EXTT7=
EXTT8=
EXTT9=
EXTT10=
EXTT11=
EXTT12=
EXTT13=
EXTT14=
EXTT15=
EXTT16=
PLAYORDER=
